<svg width="32" height="32" viewBox="0 0 32 32" fill="none" xmlns="http://www.w3.org/2000/svg">
  <rect fill="#fff" rx="5" ry="5" width="32" height="32" />
  <path fill="#000" d="M27.517 26.163V27h-7.681l-4.659-9.977-2.015 1.704v5.608l.378.806 2.455 1.053V27H4.6v-.806l2.14-1.053.378-.806V7.665l-.377-.806L4.6 5.806V5h12.654c2.309 0 4.093.475 5.352 1.425 1.28.93 1.92 2.2 1.92 3.812 0 1.694-.63 3.036-1.889 4.028-1.259.991-3.032 1.611-5.32 1.859v.403l4.408.712 4.123 7.84 1.669 1.084ZM13.162 15.38h1.29c1.092 0 2.016-.382 2.771-1.146.777-.765 1.165-1.88 1.165-3.347 0-1.363-.325-2.406-.976-3.13-.63-.743-1.417-1.177-2.361-1.3l-1.889 1.858v7.065Z" />
</svg>