<svg width="32" height="32" viewBox="0 0 32 32" fill="none" xmlns="http://www.w3.org/2000/svg">
  <style>
    path {
      fill: black;
    }
    @media (prefers-color-scheme: dark) {
      path {
        fill: white;
      }
    }
  </style>
  <path d="M29 27.0873V28H20.6209L15.5385 17.1155L13.3407 18.9746V25.093L13.7527 25.9718L16.4313 27.1211V28H4V27.1211L6.33516 25.9718L6.74725 25.093V6.90704L6.33516 6.02817L4 4.87887V4H17.8049C20.3233 4 22.2692 4.51831 23.6429 5.55493C25.0394 6.56901 25.7376 7.95493 25.7376 9.71268C25.7376 11.5606 25.0508 13.0254 23.6772 14.107C22.3036 15.1887 20.369 15.8648 17.8736 16.1352V16.5746L22.6813 17.3521L27.1799 25.9042L29 27.0873ZM13.3407 15.3239H14.7486C15.9391 15.3239 16.9464 14.907 17.7706 14.0732C18.6177 13.2394 19.0412 12.0225 19.0412 10.4225C19.0412 8.93521 18.6864 7.79718 17.9766 7.00845C17.2898 6.19718 16.4313 5.72394 15.4011 5.58873L13.3407 7.6169V15.3239Z" />
</svg>