<?xml version="1.0" standalone="no"?>
<!DOCTYPE svg PUBLIC "-//W3C//DTD SVG 20010904//EN"
 "http://www.w3.org/TR/2001/REC-SVG-20010904/DTD/svg10.dtd">
<svg version="1.0" xmlns="http://www.w3.org/2000/svg"
 width="16.000000pt" height="16.000000pt" viewBox="0 0 16.000000 16.000000"
 preserveAspectRatio="xMidYMid meet">
<metadata>
Created by potrace 1.11, written by Peter Selinger 2001-2013
</metadata>
<g transform="translate(0.000000,16.000000) scale(0.001455,-0.001455)"
fill="#000000" stroke="none">
<path d="M502 10315 l3 -187 110 -59 c61 -33 153 -83 205 -111 52 -28 202
-109 333 -179 130 -71 241 -129 246 -129 4 0 49 -83 100 -186 l91 -185 0
-3761 0 -3760 -89 -181 c-81 -166 -93 -184 -128 -202 -21 -11 -81 -42 -133
-71 -122 -65 -213 -115 -320 -171 -47 -25 -137 -74 -200 -108 -63 -34 -139
-75 -168 -90 l-52 -27 2 -186 3 -186 2463 0 c1632 -1 2466 2 2470 9 4 6 7 89
8 186 l1 176 -236 127 c-130 69 -270 145 -311 167 -41 22 -118 63 -170 91
-172 93 -185 100 -196 111 -6 7 -36 59 -67 117 -30 58 -71 136 -91 173 l-36
69 0 1188 0 1188 63 53 c34 30 64 56 67 59 3 3 79 68 170 145 91 76 167 142
170 145 3 3 32 27 65 55 33 27 62 52 65 55 20 22 191 162 194 159 2 -2 27 -62
56 -134 29 -71 58 -143 66 -160 7 -16 66 -160 130 -320 64 -159 123 -306 131
-325 8 -19 19 -44 24 -55 4 -11 17 -42 27 -70 23 -62 298 -738 316 -780 8 -16
60 -145 116 -285 56 -140 108 -268 116 -285 7 -16 60 -147 118 -290 57 -143
134 -334 171 -425 37 -91 96 -237 132 -325 36 -88 107 -266 160 -395 52 -129
104 -257 115 -285 11 -27 27 -64 34 -82 8 -17 14 -36 14 -42 0 -6 10 -11 23
-12 12 -1 831 -2 1819 -2 l1798 -2 0 192 0 191 -162 88 c-90 48 -190 102 -223
119 -114 60 -220 118 -277 151 -32 18 -58 31 -58 28 0 -3 -12 3 -27 14 -16 11
-56 34 -90 51 -35 19 -65 41 -69 53 -3 11 -37 85 -75 164 -38 80 -69 146 -69
148 0 4 -38 85 -166 354 -30 63 -54 115 -54 117 0 2 -24 54 -54 116 -84 180
-119 254 -189 404 -36 77 -84 181 -107 230 -106 225 -181 386 -255 545 -34 74
-82 176 -105 225 -99 211 -248 530 -292 625 -17 36 -54 115 -82 175 -28 61
-69 149 -91 196 l-40 87 -325 0 c-179 0 -372 3 -430 6 -175 10 -358 22 -455
30 -27 3 -85 8 -128 11 -43 4 -88 8 -100 11 -12 2 -47 6 -77 9 -56 5 -275 33
-320 40 -31 5 -203 32 -250 39 -19 3 -71 12 -115 21 -44 8 -80 15 -80 15 -1 0
-1 36 0 81 0 90 2 93 72 102 22 4 52 9 65 11 12 3 34 8 48 10 14 3 50 10 80
16 30 6 66 13 80 15 60 11 279 57 315 67 22 5 51 12 65 15 14 2 106 24 205 49
99 25 187 47 195 49 216 53 612 185 870 289 152 62 469 219 601 299 764 462
1142 1078 1143 1867 0 84 -12 311 -18 360 -2 14 -7 48 -11 75 -4 28 -9 59 -10
70 -5 37 -34 170 -51 230 -8 33 -17 67 -19 75 -8 35 -76 214 -110 286 -263
570 -772 975 -1544 1231 -74 24 -159 50 -190 58 -31 7 -90 22 -131 33 -41 12
-154 36 -250 56 -163 32 -196 38 -275 50 -16 2 -61 9 -100 15 -80 12 -204 28
-285 36 -30 3 -71 7 -90 10 -19 2 -73 7 -120 11 -47 3 -97 8 -111 9 -15 2 -87
7 -160 11 -74 3 -156 9 -184 11 -27 3 -1235 7 -2683 10 l-2632 4 2 -186z
m5037 -425 c326 -97 590 -343 749 -696 80 -178 165 -470 187 -636 3 -26 8 -53
10 -60 2 -7 7 -35 9 -63 6 -55 15 -143 21 -190 23 -179 23 -758 1 -960 -2 -16
-6 -61 -10 -98 -4 -37 -9 -76 -11 -85 -1 -9 -6 -39 -9 -67 -6 -40 -30 -164
-51 -255 -103 -459 -342 -815 -676 -1011 -167 -97 -402 -172 -614 -195 -33 -3
-78 -8 -100 -11 -22 -2 -190 -5 -372 -7 l-333 -3 0 1802 0 1801 166 119 c91
66 175 127 187 135 12 8 103 73 202 145 99 72 212 153 250 180 39 27 72 51 75
54 3 3 28 22 55 41 28 19 52 38 53 42 2 4 10 8 18 8 8 0 14 4 14 8 0 15 44 31
75 28 17 -2 63 -13 104 -26z"/>
</g>
</svg>
